<svg xmlns="http://www.w3.org/2000/svg" viewBox="0 0 1920 1080" fill="none">
  <defs>
    <linearGradient id="warmGlow" x1="0.3" y1="0" x2="0.7" y2="1">
      <stop offset="0%" stop-color="#3d2410" stop-opacity="0.3"/>
      <stop offset="100%" stop-color="#0c0a09" stop-opacity="0"/>
    </linearGradient>
  </defs>

  <!-- Background -->
  <rect width="1920" height="1080" fill="#0c0a09"/>
  <rect width="1920" height="1080" fill="url(#warmGlow)"/>

  <!-- Brewery/taproom interior scene -->
  <!-- Back wall -->
  <rect x="200" y="200" width="1520" height="600" fill="#1c1917"/>

  <!-- Exposed beam ceiling -->
  <rect x="200" y="200" width="1520" height="20" fill="#292524"/>
  <rect x="300" y="200" width="16" height="520" fill="#292524" opacity="0.3"/>
  <rect x="700" y="200" width="16" height="520" fill="#292524" opacity="0.3"/>
  <rect x="1100" y="200" width="16" height="520" fill="#292524" opacity="0.3"/>
  <rect x="1500" y="200" width="16" height="520" fill="#292524" opacity="0.3"/>

  <!-- Tap wall / back bar -->
  <rect x="400" y="280" width="1120" height="300" rx="4" fill="#292524"/>

  <!-- Tap handles row -->
  <g>
    <rect x="480" y="300" width="20" height="60" rx="4" fill="#8B4513" opacity="0.6"/>
    <circle cx="490" cy="294" r="8" fill="#A0522D" opacity="0.5"/>
    <rect x="560" y="300" width="20" height="60" rx="4" fill="#8B4513" opacity="0.6"/>
    <circle cx="570" cy="294" r="8" fill="#A0522D" opacity="0.5"/>
    <rect x="640" y="300" width="20" height="60" rx="4" fill="#8B4513" opacity="0.6"/>
    <circle cx="650" cy="294" r="8" fill="#d4a574" opacity="0.4"/>
    <rect x="720" y="300" width="20" height="60" rx="4" fill="#8B4513" opacity="0.6"/>
    <circle cx="730" cy="294" r="8" fill="#A0522D" opacity="0.5"/>
    <rect x="800" y="300" width="20" height="60" rx="4" fill="#8B4513" opacity="0.6"/>
    <circle cx="810" cy="294" r="8" fill="#d4a574" opacity="0.4"/>
    <rect x="880" y="300" width="20" height="60" rx="4" fill="#8B4513" opacity="0.6"/>
    <circle cx="890" cy="294" r="8" fill="#A0522D" opacity="0.5"/>
    <rect x="960" y="300" width="20" height="60" rx="4" fill="#8B4513" opacity="0.6"/>
    <circle cx="970" cy="294" r="8" fill="#A0522D" opacity="0.5"/>
    <rect x="1040" y="300" width="20" height="60" rx="4" fill="#8B4513" opacity="0.6"/>
    <circle cx="1050" cy="294" r="8" fill="#d4a574" opacity="0.4"/>
    <rect x="1120" y="300" width="20" height="60" rx="4" fill="#8B4513" opacity="0.6"/>
    <circle cx="1130" cy="294" r="8" fill="#A0522D" opacity="0.5"/>
    <rect x="1200" y="300" width="20" height="60" rx="4" fill="#8B4513" opacity="0.6"/>
    <circle cx="1210" cy="294" r="8" fill="#A0522D" opacity="0.5"/>
    <rect x="1280" y="300" width="20" height="60" rx="4" fill="#8B4513" opacity="0.6"/>
    <circle cx="1290" cy="294" r="8" fill="#d4a574" opacity="0.4"/>
    <rect x="1360" y="300" width="20" height="60" rx="4" fill="#8B4513" opacity="0.6"/>
    <circle cx="1370" cy="294" r="8" fill="#A0522D" opacity="0.5"/>
  </g>

  <!-- Tap menu board -->
  <rect x="440" y="400" width="500" height="160" rx="8" fill="#1c1917" stroke="#44403c" stroke-width="1"/>
  <text x="470" y="432" font-family="system-ui" font-size="14" fill="#d4a574" font-weight="600">ON TAP</text>
  <line x1="470" y1="442" x2="900" y2="442" stroke="#44403c" stroke-width="0.5"/>
  <text x="470" y="466" font-family="system-ui" font-size="12" fill="#78716c">Wild Ale — Barrel Aged</text>
  <text x="470" y="488" font-family="system-ui" font-size="12" fill="#78716c">Farmhouse Saison — Summer</text>
  <text x="470" y="510" font-family="system-ui" font-size="12" fill="#78716c">Sour — Raspberry Lambic</text>
  <text x="470" y="532" font-family="system-ui" font-size="12" fill="#78716c">Table Beer — Session</text>

  <!-- Bottle display -->
  <g opacity="0.5">
    <rect x="1000" y="400" width="480" height="160" rx="8" fill="#1c1917" stroke="#44403c" stroke-width="1"/>
    <text x="1030" y="432" font-family="system-ui" font-size="14" fill="#d4a574" font-weight="600">BOTTLES</text>
    <line x1="1030" y1="442" x2="1440" y2="442" stroke="#44403c" stroke-width="0.5"/>
    <!-- Bottle silhouettes -->
    <rect x="1060" y="458" width="24" height="80" rx="4" fill="#292524"/>
    <rect x="1064" y="446" width="16" height="16" rx="8" fill="#292524"/>
    <rect x="1110" y="458" width="24" height="80" rx="4" fill="#292524"/>
    <rect x="1114" y="446" width="16" height="16" rx="8" fill="#292524"/>
    <rect x="1160" y="458" width="24" height="80" rx="4" fill="#292524"/>
    <rect x="1164" y="446" width="16" height="16" rx="8" fill="#292524"/>
    <rect x="1210" y="458" width="24" height="80" rx="4" fill="#292524"/>
    <rect x="1214" y="446" width="16" height="16" rx="8" fill="#292524"/>
    <rect x="1260" y="458" width="24" height="80" rx="4" fill="#292524"/>
    <rect x="1264" y="446" width="16" height="16" rx="8" fill="#292524"/>
    <rect x="1310" y="458" width="24" height="80" rx="4" fill="#292524"/>
    <rect x="1314" y="446" width="16" height="16" rx="8" fill="#292524"/>
  </g>

  <!-- Bar counter -->
  <rect x="200" y="600" width="1520" height="40" rx="2" fill="#3d2410" opacity="0.6"/>
  <rect x="200" y="636" width="1520" height="8" fill="#2d1a0e" opacity="0.5"/>

  <!-- Bar stools -->
  <g opacity="0.4">
    <circle cx="400" cy="720" r="16" fill="#292524" stroke="#44403c" stroke-width="1"/>
    <rect x="396" y="736" width="8" height="60" fill="#44403c"/>
    <circle cx="520" cy="720" r="16" fill="#292524" stroke="#44403c" stroke-width="1"/>
    <rect x="516" y="736" width="8" height="60" fill="#44403c"/>
    <circle cx="640" cy="720" r="16" fill="#292524" stroke="#44403c" stroke-width="1"/>
    <rect x="636" y="736" width="8" height="60" fill="#44403c"/>
    <circle cx="1280" cy="720" r="16" fill="#292524" stroke="#44403c" stroke-width="1"/>
    <rect x="1276" y="736" width="8" height="60" fill="#44403c"/>
    <circle cx="1400" cy="720" r="16" fill="#292524" stroke="#44403c" stroke-width="1"/>
    <rect x="1396" y="736" width="8" height="60" fill="#44403c"/>
    <circle cx="1520" cy="720" r="16" fill="#292524" stroke="#44403c" stroke-width="1"/>
    <rect x="1516" y="736" width="8" height="60" fill="#44403c"/>
  </g>

  <!-- Floor -->
  <rect x="0" y="800" width="1920" height="280" fill="#0f0e0d"/>

  <!-- Social media content overlay (brand strategy) -->
  <!-- Phone mockup with Instagram post -->
  <g transform="translate(1400, 340)">
    <rect x="0" y="0" width="200" height="360" rx="20" fill="#1c1917" stroke="#44403c" stroke-width="2"/>
    <rect x="8" y="8" width="184" height="344" rx="16" fill="#0c0a09"/>

    <!-- IG post header -->
    <circle cx="28" cy="32" r="10" fill="#8B4513" opacity="0.4"/>
    <text x="44" y="36" font-family="system-ui" font-size="9" fill="#a8a29e" font-weight="600">gardenpath_ferm</text>

    <!-- Post image area -->
    <rect x="14" y="52" width="172" height="160" rx="4" fill="#292524"/>
    <text x="100" y="136" font-family="system-ui" font-size="11" fill="#44403c" text-anchor="middle">Thursday Trivia</text>
    <text x="100" y="154" font-family="system-ui" font-size="9" fill="#44403c" text-anchor="middle">7PM @ Great Northern</text>

    <!-- Engagement -->
    <g transform="translate(14, 224)">
      <!-- Heart icon -->
      <path d="M4,6 C4,3 0,0 0,3 C0,6 4,10 4,10 C4,10 8,6 8,3 C8,0 4,3 4,6" fill="#ef4444" opacity="0.5" transform="scale(1.2)"/>
      <text x="20" y="10" font-family="system-ui" font-size="9" fill="#78716c">247 likes</text>
    </g>

    <text x="14" y="254" font-family="system-ui" font-size="8" fill="#a8a29e" font-weight="600">gardenpath_ferm</text>
    <text x="14" y="268" font-family="system-ui" font-size="8" fill="#78716c">Come hang with us tonight.</text>
    <text x="14" y="280" font-family="system-ui" font-size="8" fill="#78716c">First beer&apos;s on the house if</text>
    <text x="14" y="292" font-family="system-ui" font-size="8" fill="#78716c">you beat last week&apos;s champ.</text>

    <!-- Growth indicator -->
    <rect x="14" y="310" width="172" height="28" rx="4" fill="#22c55e" opacity="0.1"/>
    <text x="100" y="329" font-family="ui-monospace, monospace" font-size="10" fill="#22c55e" text-anchor="middle" opacity="0.8">+900% organic growth</text>
  </g>

  <!-- Content calendar peek -->
  <g transform="translate(1360, 720)">
    <rect x="0" y="0" width="280" height="180" rx="8" fill="#1c1917" stroke="#44403c" stroke-width="1"/>
    <text x="16" y="28" font-family="ui-monospace, monospace" font-size="10" fill="#d4a574" letter-spacing="0.08em">CONTENT CALENDAR</text>
    <line x1="16" y1="38" x2="264" y2="38" stroke="#292524" stroke-width="0.5"/>

    <!-- Calendar row -->
    <text x="16" y="60" font-family="system-ui" font-size="9" fill="#57534e">MON</text>
    <text x="56" y="60" font-family="system-ui" font-size="9" fill="#57534e">TUE</text>
    <text x="96" y="60" font-family="system-ui" font-size="9" fill="#57534e">WED</text>
    <text x="136" y="60" font-family="system-ui" font-size="9" fill="#d4a574">THU</text>
    <text x="176" y="60" font-family="system-ui" font-size="9" fill="#57534e">FRI</text>
    <text x="216" y="60" font-family="system-ui" font-size="9" fill="#57534e">SAT</text>

    <!-- Content blocks -->
    <rect x="16" y="68" width="32" height="20" rx="3" fill="#292524"/>
    <rect x="56" y="68" width="32" height="20" rx="3" fill="#292524"/>
    <rect x="136" y="68" width="32" height="20" rx="3" fill="#d4a574" opacity="0.3"/>
    <rect x="216" y="68" width="32" height="20" rx="3" fill="#292524"/>

    <rect x="16" y="96" width="32" height="20" rx="3" fill="#292524"/>
    <rect x="96" y="96" width="32" height="20" rx="3" fill="#292524"/>
    <rect x="136" y="96" width="32" height="20" rx="3" fill="#d4a574" opacity="0.3"/>
    <rect x="176" y="96" width="32" height="20" rx="3" fill="#292524"/>

    <rect x="56" y="124" width="32" height="20" rx="3" fill="#292524"/>
    <rect x="136" y="124" width="32" height="20" rx="3" fill="#d4a574" opacity="0.3"/>
    <rect x="216" y="124" width="32" height="20" rx="3" fill="#292524"/>

    <text x="16" y="170" font-family="system-ui" font-size="9" fill="#57534e">Community-first cadence</text>
  </g>

  <!-- Title and info overlay -->
  <rect x="100" y="840" width="1100" height="140" rx="12" fill="#0c0a09" stroke="#292524" stroke-width="1" opacity="0.9"/>

  <text x="140" y="886" font-family="ui-monospace, monospace" font-size="11" fill="#8B4513" letter-spacing="0.12em">THE GREAT NORTHERN BOTTLE SHOP & LOUNGE</text>
  <text x="140" y="930" font-family="system-ui, sans-serif" font-size="42" fill="#a8a29e" font-weight="600">Garden Path Fermentation</text>
  <text x="140" y="964" font-family="system-ui, sans-serif" font-size="17" fill="#57534e">Brand consulting and social strategy for Bellingham&apos;s craft fermentation destination</text>
</svg>
