<svg xmlns="http://www.w3.org/2000/svg" viewBox="0 0 1920 1080" fill="none">
  <!-- Background -->
  <rect width="1920" height="1080" fill="#0c0a12"/>

  <!-- Subtle dot grid -->
  <defs>
    <pattern id="dots" width="40" height="40" patternUnits="userSpaceOnUse">
      <circle cx="20" cy="20" r="0.8" fill="#2d1b69" opacity="0.4"/>
    </pattern>
  </defs>
  <rect width="1920" height="1080" fill="url(#dots)"/>

  <!-- Toolkit interface mockup -->
  <!-- Main window -->
  <rect x="200" y="80" width="1520" height="920" rx="16" fill="#110e1a" stroke="#2d1b69" stroke-width="1"/>

  <!-- Top bar -->
  <rect x="200" y="80" width="1520" height="52" rx="16" fill="#1a1530"/>
  <rect x="200" y="116" width="1520" height="16" fill="#1a1530"/>
  <circle cx="232" cy="106" r="6" fill="#ef4444" opacity="0.5"/>
  <circle cx="256" cy="106" r="6" fill="#f59e0b" opacity="0.5"/>
  <circle cx="280" cy="106" r="6" fill="#22c55e" opacity="0.5"/>

  <!-- Search bar (Ctrl+K) -->
  <rect x="700" y="92" width="520" height="28" rx="6" fill="#0c0a12" stroke="#2d1b69" stroke-width="1"/>
  <text x="720" y="111" font-family="ui-monospace, monospace" font-size="12" fill="#57534e">Search toolkit...</text>
  <rect x="1156" y="97" width="48" height="18" rx="4" fill="#2d1b69" opacity="0.5"/>
  <text x="1168" y="110" font-family="ui-monospace, monospace" font-size="10" fill="#78716c">^K</text>

  <!-- Sidebar navigation -->
  <rect x="200" y="132" width="280" height="868" fill="#110e1a" stroke-right="#2d1b69"/>
  <line x1="480" y1="132" x2="480" y2="1000" stroke="#2d1b69" stroke-width="1"/>

  <!-- WBD logo area -->
  <rect x="228" y="152" width="224" height="48" rx="6" fill="#1a1530"/>
  <text x="252" y="182" font-family="system-ui" font-size="16" fill="#a8a29e" font-weight="600">WBD Licensee Toolkit</text>

  <!-- Nav items - 5 step progression -->
  <g>
    <rect x="228" y="224" width="224" height="40" rx="6" fill="#2d1b69" opacity="0.3"/>
    <circle cx="252" cy="244" r="10" fill="#2d1b69"/>
    <text x="252" y="248" font-family="system-ui" font-size="10" fill="white" text-anchor="middle" font-weight="600">1</text>
    <text x="272" y="249" font-family="system-ui" font-size="13" fill="#a8a29e">Brand Building</text>

    <rect x="228" y="272" width="224" height="40" rx="6" fill="transparent"/>
    <circle cx="252" cy="292" r="10" fill="#1a1530" stroke="#2d1b69" stroke-width="1"/>
    <text x="252" y="296" font-family="system-ui" font-size="10" fill="#78716c" text-anchor="middle" font-weight="600">2</text>
    <text x="272" y="297" font-family="system-ui" font-size="13" fill="#78716c">Product Listings</text>

    <rect x="228" y="320" width="224" height="40" rx="6" fill="transparent"/>
    <circle cx="252" cy="340" r="10" fill="#1a1530" stroke="#2d1b69" stroke-width="1"/>
    <text x="252" y="344" font-family="system-ui" font-size="10" fill="#78716c" text-anchor="middle" font-weight="600">3</text>
    <text x="272" y="345" font-family="system-ui" font-size="13" fill="#78716c">Advertising</text>

    <rect x="228" y="368" width="224" height="40" rx="6" fill="transparent"/>
    <circle cx="252" cy="388" r="10" fill="#1a1530" stroke="#2d1b69" stroke-width="1"/>
    <text x="252" y="392" font-family="system-ui" font-size="10" fill="#78716c" text-anchor="middle" font-weight="600">4</text>
    <text x="272" y="393" font-family="system-ui" font-size="13" fill="#78716c">Algorithm &amp; AI</text>

    <rect x="228" y="416" width="224" height="40" rx="6" fill="transparent"/>
    <circle cx="252" cy="436" r="10" fill="#1a1530" stroke="#2d1b69" stroke-width="1"/>
    <text x="252" y="440" font-family="system-ui" font-size="10" fill="#78716c" text-anchor="middle" font-weight="600">5</text>
    <text x="272" y="441" font-family="system-ui" font-size="13" fill="#78716c">Optimization</text>
  </g>

  <!-- Sidebar divider -->
  <line x1="228" y1="480" x2="452" y2="480" stroke="#2d1b69" stroke-width="0.5"/>

  <!-- Sidebar content areas -->
  <text x="228" y="512" font-family="ui-monospace, monospace" font-size="10" fill="#57534e" letter-spacing="0.1em">CONTENT AREAS</text>
  <g>
    <text x="244" y="540" font-family="system-ui" font-size="12" fill="#57534e">Brand Registry</text>
    <text x="244" y="564" font-family="system-ui" font-size="12" fill="#57534e">A+ Content</text>
    <text x="244" y="588" font-family="system-ui" font-size="12" fill="#57534e">Storefronts</text>
    <text x="244" y="612" font-family="system-ui" font-size="12" fill="#57534e">Sponsored Ads</text>
    <text x="244" y="636" font-family="system-ui" font-size="12" fill="#57534e">Amazon DSP</text>
    <text x="244" y="660" font-family="system-ui" font-size="12" fill="#57534e">Fulfillment</text>
  </g>

  <!-- Main content area -->
  <g>
    <!-- Page header -->
    <text x="520" y="180" font-family="ui-monospace, monospace" font-size="11" fill="#2d1b69" letter-spacing="0.1em">STEP 1 OF 5</text>
    <text x="520" y="224" font-family="system-ui" font-size="36" fill="#e7e5e4" font-weight="600">Brand Building &amp; Content</text>
    <text x="520" y="260" font-family="system-ui" font-size="16" fill="#78716c">Set up Brand Registry, design your storefront, and create A+ Content that converts.</text>

    <!-- Progress bar -->
    <rect x="520" y="288" width="1160" height="4" rx="2" fill="#1a1530"/>
    <rect x="520" y="288" width="232" height="4" rx="2" fill="#2d1b69"/>

    <!-- Content cards grid -->
    <!-- Card 1: Brand Registry -->
    <rect x="520" y="320" width="370" height="260" rx="12" fill="#1a1530" stroke="#2d1b69" stroke-width="0.5"/>
    <rect x="544" y="344" width="322" height="120" rx="8" fill="#0c0a12"/>
    <!-- Mini storefront preview -->
    <rect x="564" y="364" width="282" height="16" rx="3" fill="#2d1b69" opacity="0.3"/>
    <rect x="564" y="390" width="130" height="60" rx="4" fill="#1a1530"/>
    <rect x="704" y="390" width="130" height="60" rx="4" fill="#1a1530"/>
    <text x="544" y="492" font-family="system-ui" font-size="16" fill="#a8a29e" font-weight="600">Brand Registry</text>
    <text x="544" y="516" font-family="system-ui" font-size="12" fill="#57534e">Enroll your brand and unlock</text>
    <text x="544" y="534" font-family="system-ui" font-size="12" fill="#57534e">advanced selling tools</text>
    <rect x="544" y="548" width="80" height="20" rx="4" fill="#2d1b69" opacity="0.4"/>
    <text x="558" y="562" font-family="system-ui" font-size="10" fill="#a8a29e">Start here</text>

    <!-- Card 2: A+ Content -->
    <rect x="910" y="320" width="370" height="260" rx="12" fill="#1a1530" stroke="#2d1b69" stroke-width="0.5"/>
    <rect x="934" y="344" width="322" height="120" rx="8" fill="#0c0a12"/>
    <!-- A+ module layout preview -->
    <rect x="954" y="356" width="282" height="8" rx="2" fill="#2d1b69" opacity="0.2"/>
    <rect x="954" y="372" width="136" height="76" rx="4" fill="#1a1530"/>
    <rect x="1100" y="372" width="136" height="76" rx="4" fill="#1a1530"/>
    <rect x="954" y="372" width="136" height="40" rx="4" fill="#2d1b69" opacity="0.15"/>
    <rect x="1100" y="372" width="136" height="40" rx="4" fill="#2d1b69" opacity="0.15"/>
    <text x="934" y="492" font-family="system-ui" font-size="16" fill="#a8a29e" font-weight="600">A+ Content</text>
    <text x="934" y="516" font-family="system-ui" font-size="12" fill="#57534e">Enhanced product descriptions</text>
    <text x="934" y="534" font-family="system-ui" font-size="12" fill="#57534e">that increase conversions</text>

    <!-- Card 3: Storefronts -->
    <rect x="1300" y="320" width="370" height="260" rx="12" fill="#1a1530" stroke="#2d1b69" stroke-width="0.5"/>
    <rect x="1324" y="344" width="322" height="120" rx="8" fill="#0c0a12"/>
    <!-- Storefront preview -->
    <rect x="1344" y="356" width="282" height="30" rx="4" fill="#2d1b69" opacity="0.2"/>
    <rect x="1344" y="394" width="88" height="56" rx="4" fill="#1a1530"/>
    <rect x="1440" y="394" width="88" height="56" rx="4" fill="#1a1530"/>
    <rect x="1536" y="394" width="88" height="56" rx="4" fill="#1a1530"/>
    <text x="1324" y="492" font-family="system-ui" font-size="16" fill="#a8a29e" font-weight="600">Brand Store</text>
    <text x="1324" y="516" font-family="system-ui" font-size="12" fill="#57534e">Multi-page storefront design</text>
    <text x="1324" y="534" font-family="system-ui" font-size="12" fill="#57534e">and navigation structure</text>

    <!-- Second row of cards -->
    <!-- Card 4: Advertising -->
    <rect x="520" y="600" width="370" height="200" rx="12" fill="#1a1530" stroke="#2d1b69" stroke-width="0.5"/>
    <text x="544" y="636" font-family="system-ui" font-size="16" fill="#a8a29e" font-weight="600">Advertising</text>
    <text x="544" y="660" font-family="system-ui" font-size="12" fill="#57534e">Sponsored Products, Brands, Display, and DSP</text>
    <!-- Mini ad performance chart -->
    <rect x="544" y="680" width="322" height="80" rx="6" fill="#0c0a12"/>
    <polyline points="564,740 604,720 644,730 684,700 724,710 764,690 804,680 844,695" stroke="#2d1b69" stroke-width="2" fill="none"/>
    <text x="564" y="700" font-family="ui-monospace, monospace" font-size="9" fill="#57534e">Campaign Performance</text>

    <!-- Card 5: Algorithm -->
    <rect x="910" y="600" width="370" height="200" rx="12" fill="#1a1530" stroke="#2d1b69" stroke-width="0.5"/>
    <text x="934" y="636" font-family="system-ui" font-size="16" fill="#a8a29e" font-weight="600">Algorithm &amp; AI Discovery</text>
    <text x="934" y="660" font-family="system-ui" font-size="12" fill="#57534e">COSMO algorithm and Rufus AI integration</text>
    <rect x="934" y="680" width="322" height="80" rx="6" fill="#0c0a12"/>
    <text x="954" y="708" font-family="ui-monospace, monospace" font-size="10" fill="#2d1b69">COSMO</text>
    <rect x="1004" y="698" width="60" height="14" rx="3" fill="#2d1b69" opacity="0.3"/>
    <text x="1012" y="709" font-family="system-ui" font-size="9" fill="#78716c">Updated</text>
    <text x="954" y="736" font-family="ui-monospace, monospace" font-size="10" fill="#2d1b69">RUFUS</text>
    <rect x="1000" y="726" width="60" height="14" rx="3" fill="#2d1b69" opacity="0.3"/>
    <text x="1008" y="737" font-family="system-ui" font-size="9" fill="#78716c">Updated</text>

    <!-- Card 6: Seasonal -->
    <rect x="1300" y="600" width="370" height="200" rx="12" fill="#1a1530" stroke="#2d1b69" stroke-width="0.5"/>
    <text x="1324" y="636" font-family="system-ui" font-size="16" fill="#a8a29e" font-weight="600">Seasonal Planning</text>
    <text x="1324" y="660" font-family="system-ui" font-size="12" fill="#57534e">Tentpole moments and campaign timing</text>
    <rect x="1324" y="680" width="322" height="80" rx="6" fill="#0c0a12"/>
    <!-- Calendar grid hint -->
    <g opacity="0.5">
      <rect x="1340" y="696" width="40" height="24" rx="2" fill="#2d1b69" opacity="0.3"/>
      <rect x="1388" y="696" width="40" height="24" rx="2" fill="#1a1530"/>
      <rect x="1436" y="696" width="40" height="24" rx="2" fill="#1a1530"/>
      <rect x="1484" y="696" width="40" height="24" rx="2" fill="#2d1b69" opacity="0.5"/>
      <rect x="1532" y="696" width="40" height="24" rx="2" fill="#1a1530"/>
      <rect x="1580" y="696" width="40" height="24" rx="2" fill="#1a1530"/>
      <rect x="1340" y="728" width="40" height="24" rx="2" fill="#1a1530"/>
      <rect x="1388" y="728" width="40" height="24" rx="2" fill="#1a1530"/>
      <rect x="1436" y="728" width="40" height="24" rx="2" fill="#2d1b69" opacity="0.6"/>
      <rect x="1484" y="728" width="40" height="24" rx="2" fill="#1a1530"/>
      <rect x="1532" y="728" width="40" height="24" rx="2" fill="#1a1530"/>
      <rect x="1580" y="728" width="40" height="24" rx="2" fill="#2d1b69" opacity="0.3"/>
    </g>
  </g>

</svg>
